<?xml version="1.0" encoding="UTF-8"?>
<svg xmlns="http://www.w3.org/2000/svg" width="968" height="1292" viewBox="0 0 968 1292">
  <defs>
    <marker id="uml-filled-arrow" markerWidth="10" markerHeight="10" refX="9" refY="5" orient="auto" markerUnits="strokeWidth">
      <path d="M0,0 L10,5 L0,10 Z" fill="#141414"/>
    </marker>
    <marker id="uml-open-arrow" markerWidth="10" markerHeight="10" refX="9" refY="5" orient="auto" markerUnits="strokeWidth">
      <path d="M0,0 L10,5 L0,10" fill="none" stroke="#141414" stroke-width="1.2"/>
    </marker>
  </defs>
  <rect x="0" y="0" width="968" height="1292" fill="#FFFFFF"/>
  <g>
<g>
    <circle cx="148" cy="22" r="9" fill="none" stroke="#141414" stroke-width="1.5"/>
    <line x1="148" y1="31" x2="148" y2="45" stroke="#141414" stroke-width="1.5"/>
    <line x1="137" y1="38" x2="159" y2="38" stroke="#141414" stroke-width="1.5"/>
    <line x1="148" y1="45" x2="139" y2="57" stroke="#141414" stroke-width="1.5"/>
    <line x1="148" y1="45" x2="157" y2="57" stroke="#141414" stroke-width="1.5"/>
    <text x="148" y="56" text-anchor="middle" fill="#141414" font-size="11" font-family="Segoe UI, Microsoft YaHei, Arial, sans-serif" text-decoration="underline">user:User</text>
  </g>
<line x1="148" y1="78" x2="148" y2="1272" stroke="#141414" stroke-width="1" stroke-dasharray="5 5"/>
<g>
    <rect x="242" y="16" width="148" height="44" fill="#FFFFFF" stroke="#141414" stroke-width="1"/>
    <text x="316" y="34" text-anchor="middle" fill="#141414" font-size="11" font-family="Segoe UI, Microsoft YaHei, Arial, sans-serif" text-decoration="underline"><tspan x="316" dy="0">msgSvc :</tspan><tspan x="316" dy="14">PublicMessageService</tspan></text>
  </g>
<line x1="316" y1="78" x2="316" y2="1272" stroke="#141414" stroke-width="1" stroke-dasharray="5 5"/>
<g>
    <rect x="410" y="16" width="148" height="44" fill="#FFFFFF" stroke="#141414" stroke-width="1"/>
    <text x="484" y="34" text-anchor="middle" fill="#141414" font-size="11" font-family="Segoe UI, Microsoft YaHei, Arial, sans-serif" text-decoration="underline"><tspan x="484" dy="0">msgRepo :</tspan><tspan x="484" dy="14">MessageRepository</tspan></text>
  </g>
<line x1="484" y1="78" x2="484" y2="1272" stroke="#141414" stroke-width="1" stroke-dasharray="5 5"/>
<g>
    <rect x="578" y="16" width="148" height="44" fill="#FFFFFF" stroke="#141414" stroke-width="1"/>
    <text x="652" y="34" text-anchor="middle" fill="#141414" font-size="11" font-family="Segoe UI, Microsoft YaHei, Arial, sans-serif" text-decoration="underline"><tspan x="652" dy="0">itemRepo :</tspan><tspan x="652" dy="14">ItemRepository</tspan></text>
  </g>
<line x1="652" y1="78" x2="652" y2="1272" stroke="#141414" stroke-width="1" stroke-dasharray="5 5"/>
<g>
    <rect x="746" y="16" width="148" height="44" fill="#FFFFFF" stroke="#141414" stroke-width="1"/>
    <text x="820" y="34" text-anchor="middle" fill="#141414" font-size="11" font-family="Segoe UI, Microsoft YaHei, Arial, sans-serif" text-decoration="underline"><tspan x="820" dy="0">comment :</tspan><tspan x="820" dy="14">PublicComment</tspan></text>
  </g>
<line x1="820" y1="78" x2="820" y2="1272" stroke="#141414" stroke-width="1" stroke-dasharray="5 5"/>
<rect x="146" y="102" width="8" height="58.599999999999994" fill="#FFFFFF" stroke="#141414" stroke-width="1"/>
<rect x="310" y="102" width="12" height="405.4" fill="#FFFFFF" stroke="#141414" stroke-width="1"/>
<rect x="650" y="170" width="8" height="133.39999999999998" fill="#FFFFFF" stroke="#141414" stroke-width="1"/>
<rect x="482" y="306" width="8" height="133.39999999999998" fill="#FFFFFF" stroke="#141414" stroke-width="1"/>
<rect x="146" y="442" width="8" height="58.60000000000002" fill="#FFFFFF" stroke="#141414" stroke-width="1"/>
<rect x="146" y="510" width="8" height="58.60000000000002" fill="#FFFFFF" stroke="#141414" stroke-width="1"/>
<rect x="310" y="510" width="12" height="337.4000000000001" fill="#FFFFFF" stroke="#141414" stroke-width="1"/>
<rect x="818" y="578" width="8" height="85.79999999999995" fill="#FFFFFF" stroke="#141414" stroke-width="1"/>
<rect x="482" y="646" width="8" height="133.4000000000001" fill="#FFFFFF" stroke="#141414" stroke-width="1"/>
<rect x="146" y="782" width="8" height="58.59999999999991" fill="#FFFFFF" stroke="#141414" stroke-width="1"/>
<rect x="146" y="850" width="8" height="58.59999999999991" fill="#FFFFFF" stroke="#141414" stroke-width="1"/>
<rect x="310" y="850" width="12" height="405.4000000000001" fill="#FFFFFF" stroke="#141414" stroke-width="1"/>
<rect x="482" y="918" width="8" height="133.4000000000001" fill="#FFFFFF" stroke="#141414" stroke-width="1"/>
<rect x="818" y="1054" width="8" height="65.40000000000009" fill="#FFFFFF" stroke="#141414" stroke-width="1"/>
<rect x="482" y="1122" width="8" height="65.40000000000009" fill="#FFFFFF" stroke="#141414" stroke-width="1"/>
<rect x="146" y="1190" width="8" height="58.59999999999991" fill="#FFFFFF" stroke="#141414" stroke-width="1"/>
<g>
    <line x1="158" y1="130" x2="306" y2="130" stroke="#141414" stroke-width="1" marker-end="url(#uml-filled-arrow)"/>
    <rect x="170.6" y="98" width="122.80000000000001" height="16" fill="#FFFFFF"/>
    <text x="232" y="110" text-anchor="middle" fill="#141414" font-size="11" font-family="Segoe UI, Microsoft YaHei, Arial, sans-serif">获取留言列表(商品ID)</text>
  </g>
<g>
    <line x1="326" y1="198" x2="642" y2="198" stroke="#141414" stroke-width="1" marker-end="url(#uml-filled-arrow)"/>
    <rect x="416.4" y="166" width="135.20000000000002" height="16" fill="#FFFFFF"/>
    <text x="484" y="178" text-anchor="middle" fill="#141414" font-size="11" font-family="Segoe UI, Microsoft YaHei, Arial, sans-serif">根据ID查找商品(商品ID)</text>
  </g>
<g>
    <line x1="642" y1="266" x2="326" y2="266" stroke="#141414" stroke-width="1" stroke-dasharray="6 4" marker-end="url(#uml-open-arrow)"/>
    <rect x="468" y="278" width="32" height="16" fill="#FFFFFF"/>
    <text x="484" y="290" text-anchor="middle" fill="#141414" font-size="11" font-family="Segoe UI, Microsoft YaHei, Arial, sans-serif">商品</text>
  </g>
<g>
    <line x1="326" y1="334" x2="474" y2="334" stroke="#141414" stroke-width="1" marker-end="url(#uml-filled-arrow)"/>
    <rect x="327" y="302" width="146" height="16" fill="#FFFFFF"/>
    <text x="400" y="314" text-anchor="middle" fill="#141414" font-size="11" font-family="Segoe UI, Microsoft YaHei, Arial, sans-serif">根据商品ID查找留言(商品ID)</text>
  </g>
<g>
    <line x1="474" y1="402" x2="326" y2="402" stroke="#141414" stroke-width="1" stroke-dasharray="6 4" marker-end="url(#uml-open-arrow)"/>
    <rect x="373" y="414" width="54" height="16" fill="#FFFFFF"/>
    <text x="400" y="426" text-anchor="middle" fill="#141414" font-size="11" font-family="Segoe UI, Microsoft YaHei, Arial, sans-serif">留言列表</text>
  </g>
<g>
    <line x1="306" y1="470" x2="158" y2="470" stroke="#141414" stroke-width="1" stroke-dasharray="6 4" marker-end="url(#uml-open-arrow)"/>
    <rect x="194" y="482" width="76" height="16" fill="#FFFFFF"/>
    <text x="232" y="494" text-anchor="middle" fill="#141414" font-size="11" font-family="Segoe UI, Microsoft YaHei, Arial, sans-serif">返回留言列表</text>
  </g>
<g>
    <line x1="158" y1="538" x2="306" y2="538" stroke="#141414" stroke-width="1" marker-end="url(#uml-filled-arrow)"/>
    <rect x="164.39999999999998" y="506" width="135.20000000000002" height="16" fill="#FFFFFF"/>
    <text x="232" y="518" text-anchor="middle" fill="#141414" font-size="11" font-family="Segoe UI, Microsoft YaHei, Arial, sans-serif">发布留言(商品ID, 内容)</text>
  </g>
<g>
    <line x1="326" y1="606" x2="810" y2="606" stroke="#141414" stroke-width="1" stroke-dasharray="6 4" marker-end="url(#uml-open-arrow)"/>
    <rect x="477" y="574" width="181.99999999999997" height="16" fill="#FFFFFF"/>
    <text x="568" y="586" text-anchor="middle" fill="#141414" font-size="11" font-family="Segoe UI, Microsoft YaHei, Arial, sans-serif">新建留言(商品ID, 用户ID, 内容)</text>
  </g>
<g>
    <line x1="326" y1="674" x2="474" y2="674" stroke="#141414" stroke-width="1" marker-end="url(#uml-filled-arrow)"/>
    <rect x="366.8" y="642" width="66.4" height="16" fill="#FFFFFF"/>
    <text x="400" y="654" text-anchor="middle" fill="#141414" font-size="11" font-family="Segoe UI, Microsoft YaHei, Arial, sans-serif">保存(留言)</text>
  </g>
<g>
    <line x1="474" y1="742" x2="326" y2="742" stroke="#141414" stroke-width="1" stroke-dasharray="6 4" marker-end="url(#uml-open-arrow)"/>
    <rect x="362" y="754" width="76" height="16" fill="#FFFFFF"/>
    <text x="400" y="766" text-anchor="middle" fill="#141414" font-size="11" font-family="Segoe UI, Microsoft YaHei, Arial, sans-serif">保存后的留言</text>
  </g>
<g>
    <line x1="306" y1="810" x2="158" y2="810" stroke="#141414" stroke-width="1" stroke-dasharray="6 4" marker-end="url(#uml-open-arrow)"/>
    <rect x="205" y="822" width="54" height="16" fill="#FFFFFF"/>
    <text x="232" y="834" text-anchor="middle" fill="#141414" font-size="11" font-family="Segoe UI, Microsoft YaHei, Arial, sans-serif">发布成功</text>
  </g>
<g>
    <line x1="158" y1="878" x2="306" y2="878" stroke="#141414" stroke-width="1" marker-end="url(#uml-filled-arrow)"/>
    <rect x="181.6" y="846" width="100.80000000000001" height="16" fill="#FFFFFF"/>
    <text x="232" y="858" text-anchor="middle" fill="#141414" font-size="11" font-family="Segoe UI, Microsoft YaHei, Arial, sans-serif">删除留言(留言ID)</text>
  </g>
<g>
    <line x1="326" y1="946" x2="474" y2="946" stroke="#141414" stroke-width="1" marker-end="url(#uml-filled-arrow)"/>
    <rect x="332.4" y="914" width="135.20000000000002" height="16" fill="#FFFFFF"/>
    <text x="400" y="926" text-anchor="middle" fill="#141414" font-size="11" font-family="Segoe UI, Microsoft YaHei, Arial, sans-serif">根据ID查找留言(留言ID)</text>
  </g>
<g>
    <line x1="474" y1="1014" x2="326" y2="1014" stroke="#141414" stroke-width="1" stroke-dasharray="6 4" marker-end="url(#uml-open-arrow)"/>
    <rect x="384" y="1026" width="32" height="16" fill="#FFFFFF"/>
    <text x="400" y="1038" text-anchor="middle" fill="#141414" font-size="11" font-family="Segoe UI, Microsoft YaHei, Arial, sans-serif">留言</text>
  </g>
<g>
    <line x1="326" y1="1082" x2="810" y2="1082" stroke="#141414" stroke-width="1" marker-end="url(#uml-filled-arrow)"/>
    <rect x="512.1" y="1050" width="111.80000000000001" height="16" fill="#FFFFFF"/>
    <text x="568" y="1062" text-anchor="middle" fill="#141414" font-size="11" font-family="Segoe UI, Microsoft YaHei, Arial, sans-serif">验证拥有者(用户ID)</text>
  </g>
<g>
    <line x1="326" y1="1150" x2="474" y2="1150" stroke="#141414" stroke-width="1" marker-end="url(#uml-filled-arrow)"/>
    <rect x="366.8" y="1118" width="66.4" height="16" fill="#FFFFFF"/>
    <text x="400" y="1130" text-anchor="middle" fill="#141414" font-size="11" font-family="Segoe UI, Microsoft YaHei, Arial, sans-serif">删除(留言)</text>
  </g>
<g>
    <line x1="306" y1="1218" x2="158" y2="1218" stroke="#141414" stroke-width="1" stroke-dasharray="6 4" marker-end="url(#uml-open-arrow)"/>
    <rect x="205" y="1230" width="54" height="16" fill="#FFFFFF"/>
    <text x="232" y="1242" text-anchor="middle" fill="#141414" font-size="11" font-family="Segoe UI, Microsoft YaHei, Arial, sans-serif">删除成功</text>
  </g>
</g></svg>